<svg xmlns="http://www.w3.org/2000/svg" width="48" height="64" viewBox="0 0 48 64"><defs>
<linearGradient id="gold" x1="0" y1="0" x2="0" y2="1">
 <stop offset="0" stop-color="#fff3d6"/><stop offset="0.45" stop-color="#e8b64c"/><stop offset="1" stop-color="#a97b23"/>
</linearGradient>
<linearGradient id="goldv" x1="0" y1="0" x2="1" y2="0">
 <stop offset="0" stop-color="#a97b23"/><stop offset="0.5" stop-color="#ffe9b0"/><stop offset="1" stop-color="#a97b23"/>
</linearGradient>
<radialGradient id="haloG" cx="0.5" cy="0.5" r="0.5">
 <stop offset="0" stop-color="#fff3d6" stop-opacity="0.95"/><stop offset="0.6" stop-color="#ffe9b0" stop-opacity="0.35"/><stop offset="1" stop-color="#ffe9b0" stop-opacity="0"/>
</radialGradient>
</defs>
<path d="M24 0 L24 18" stroke="url(#goldv)" stroke-width="3"/>
<path d="M16 18 L32 18 L30 24 L18 24 Z" fill="url(#gold)"/>
<path d="M10 26 Q24 20 38 26 Q42 40 34 48 Q24 54 14 48 Q6 40 10 26 Z" fill="url(#gold)"/>
<path d="M12 32 h24 M11 40 h26" stroke="#7a5518" stroke-width="3"/>
<circle cx="18" cy="29" r="2" fill="#ff9d4d"/><circle cx="24" cy="28" r="2" fill="#ff9d4d"/><circle cx="30" cy="29" r="2" fill="#ff9d4d"/>
<path d="M20 52 L28 52 L26 58 L22 58 Z" fill="url(#gold)"/>
</svg>