<svg xmlns="http://www.w3.org/2000/svg" width="192" height="144" viewBox="0 0 192 144"><defs>
<linearGradient id="body" x1="0" y1="0" x2="0" y2="1">
 <stop offset="0" stop-color="#3a2c31"/><stop offset="0.55" stop-color="#221c24"/><stop offset="1" stop-color="#14101a"/>
</linearGradient>
<radialGradient id="ember" cx="0.5" cy="0.5" r="0.5">
 <stop offset="0" stop-color="#ffd9a0"/><stop offset="0.35" stop-color="#ff9d4d"/><stop offset="1" stop-color="#ff6b2b" stop-opacity="0"/>
</radialGradient>
<linearGradient id="rust" x1="0" y1="0" x2="0" y2="1">
 <stop offset="0" stop-color="#7a3524"/><stop offset="1" stop-color="#3d1b16"/>
</linearGradient>

<linearGradient id="bone" x1="0" y1="0" x2="0" y2="1">
 <stop offset="0" stop-color="#d6cbb2"/><stop offset="1" stop-color="#8a7f68"/>
</linearGradient>
</defs>
<path d="M16 120 Q30 84 64 80 Q60 56 88 52 Q120 50 122 76 Q158 74 172 100 Q184 116 176 128 L20 130 Z" fill="url(#bone)"/>
<!-- skull -->
<circle cx="88" cy="84" r="24" fill="#e2d8c0"/>
<path d="M74 80 a7 9 0 1 0 14 0 a7 9 0 1 0 -14 0 M94 80 a7 9 0 1 0 14 0 a7 9 0 1 0 -14 0" fill="#221c24"/>
<path d="M80 100 l4 8 M88 102 l0 8 M96 100 l-4 8" stroke="#e2d8c0" stroke-width="4"/>
<!-- ribs & long bones -->
<path d="M30 108 q20 -12 44 -6 M124 88 q22 0 36 18" stroke="#b3a890" stroke-width="7" fill="none"/>
<path d="M140 70 l24 -18 M140 70 q-4 -10 4 -14 M164 52 q10 -2 8 8" stroke="#d6cbb2" stroke-width="8" fill="none"/>
<path d="M40 90 q-2 -18 14 -24" stroke="#d6cbb2" stroke-width="8" fill="none"/>
</svg>