<svg xmlns="http://www.w3.org/2000/svg" width="128" height="128" viewBox="0 0 128 128"><defs>
<linearGradient id="body" x1="0" y1="0" x2="0" y2="1">
 <stop offset="0" stop-color="#3a2c31"/><stop offset="0.55" stop-color="#221c24"/><stop offset="1" stop-color="#14101a"/>
</linearGradient>
<radialGradient id="ember" cx="0.5" cy="0.5" r="0.5">
 <stop offset="0" stop-color="#ffd9a0"/><stop offset="0.35" stop-color="#ff9d4d"/><stop offset="1" stop-color="#ff6b2b" stop-opacity="0"/>
</radialGradient>
<linearGradient id="rust" x1="0" y1="0" x2="0" y2="1">
 <stop offset="0" stop-color="#7a3524"/><stop offset="1" stop-color="#3d1b16"/>
</linearGradient>
</defs>
<!-- lean hound, running right -->
<path d="M14 78 Q10 60 30 58 Q52 50 78 54 Q102 56 114 70 Q120 80 108 84 Q88 78 66 82 Q40 88 28 92 Q16 90 14 78 Z" fill="url(#body)"/>
<!-- spine ridge -->
<path d="M34 58 L38 46 L46 56 M52 53 L58 42 L66 53 M72 53 L80 44 L86 56" stroke="#14101a" stroke-width="5" fill="none"/>
<!-- head + jaw -->
<path d="M100 62 Q124 60 126 74 Q126 82 112 82 Q104 80 100 74 Z" fill="url(#body)"/>
<path d="M104 80 Q120 84 126 94 Q112 96 102 88 Z" fill="#14101a"/>
<path d="M108 80 l3 6 M114 82 l3 6 M120 84 l2 6 M107 74 l4 4 M114 75 l4 4" stroke="#c9bfa8" stroke-width="2.2"/>
<circle cx="108" cy="68" r="6" fill="url(#ember)"/><circle cx="108" cy="68" r="2" fill="#ffd9a0"/>
<!-- legs mid-stride -->
<path d="M30 88 L20 112 L28 114 L38 92 Z M58 86 L54 112 L62 113 L68 88 Z M84 82 L90 108 L98 106 L92 80 Z M104 82 L116 104 L122 100 L112 80 Z" fill="#1a141d"/>
<!-- ember rake on flank -->
<path d="M44 68 q8 6 20 4" stroke="#ff6b2b" stroke-width="2.5" fill="none" opacity="0.85"/>
<!-- tail -->
<path d="M16 72 Q2 66 4 52 L10 54 Q10 64 20 68 Z" fill="url(#body)"/>
</svg>