<svg xmlns="http://www.w3.org/2000/svg" width="192" height="192" viewBox="0 0 192 192"><defs>
<linearGradient id="body" x1="0" y1="0" x2="0" y2="1">
 <stop offset="0" stop-color="#3a2c31"/><stop offset="0.55" stop-color="#221c24"/><stop offset="1" stop-color="#14101a"/>
</linearGradient>
<radialGradient id="ember" cx="0.5" cy="0.5" r="0.5">
 <stop offset="0" stop-color="#ffd9a0"/><stop offset="0.35" stop-color="#ff9d4d"/><stop offset="1" stop-color="#ff6b2b" stop-opacity="0"/>
</radialGradient>
<linearGradient id="rust" x1="0" y1="0" x2="0" y2="1">
 <stop offset="0" stop-color="#7a3524"/><stop offset="1" stop-color="#3d1b16"/>
</linearGradient>

<linearGradient id="iron" x1="0" y1="0" x2="0" y2="1">
 <stop offset="0" stop-color="#8a8f9a"/><stop offset="1" stop-color="#4a4e58"/>
</linearGradient>
</defs>
<!-- hulking damned brute -->
<path d="M46 74 Q42 40 96 36 Q152 40 148 76 Q156 120 140 152 L118 158 L120 130 Q98 138 76 130 L78 158 L54 152 Q38 118 46 74 Z" fill="url(#body)"/>
<!-- small head sunken -->
<path d="M82 40 Q96 26 112 40 Q114 54 96 58 Q80 54 82 40 Z" fill="#1a141d"/>
<circle cx="90" cy="44" r="5" fill="url(#ember)"/><circle cx="104" cy="44" r="5" fill="url(#ember)"/>
<!-- massive fists -->
<path d="M40 76 Q18 84 14 112 Q12 132 30 136 Q46 134 48 116 Q50 94 52 84 Z" fill="url(#body)"/>
<path d="M152 78 Q176 86 180 114 Q182 134 164 138 Q148 136 146 118 Q144 96 142 86 Z" fill="url(#body)"/>
<!-- crossed chains -->
<g stroke="url(#iron)" stroke-width="9" fill="none" opacity="0.95">
<path d="M52 60 L148 140"/><path d="M148 60 L52 140"/>
</g>
<g stroke="#2b2e35" stroke-width="3" fill="none">
<path d="M52 60 L148 140"/><path d="M148 60 L52 140"/>
</g>
<circle cx="100" cy="100" r="10" fill="url(#iron)"/><circle cx="100" cy="100" r="4" fill="#2b2e35"/>
<!-- ember wounds -->
<path d="M66 96 q6 10 2 20 M132 92 q-6 12 -2 22" stroke="#ff6b2b" stroke-width="3.4" fill="none" opacity="0.9"/>
</svg>