<svg xmlns="http://www.w3.org/2000/svg" width="128" height="128" viewBox="0 0 128 128"><defs>
<linearGradient id="gold" x1="0" y1="0" x2="0" y2="1">
 <stop offset="0" stop-color="#fff3d6"/><stop offset="0.45" stop-color="#e8b64c"/><stop offset="1" stop-color="#a97b23"/>
</linearGradient>
<linearGradient id="goldv" x1="0" y1="0" x2="1" y2="0">
 <stop offset="0" stop-color="#a97b23"/><stop offset="0.5" stop-color="#ffe9b0"/><stop offset="1" stop-color="#a97b23"/>
</linearGradient>
<radialGradient id="haloG" cx="0.5" cy="0.5" r="0.5">
 <stop offset="0" stop-color="#fff3d6" stop-opacity="0.95"/><stop offset="0.6" stop-color="#ffe9b0" stop-opacity="0.35"/><stop offset="1" stop-color="#ffe9b0" stop-opacity="0"/>
</radialGradient>
</defs>
<path d="M22 24 L94 24 Q106 24 106 36 L106 92 L34 92 Q22 92 22 80 Z" fill="#e2d8c0"/>
<path d="M106 36 Q106 46 96 46 L96 100 Q84 96 34 100 Q22 100 22 88" fill="none" stroke="#b3a890" stroke-width="4"/>
<rect x="30" y="34" width="22" height="26" fill="#a82a2a"/>
<path d="M34 40 h14 M34 46 h14 M34 52 h10" stroke="#ffe9b0" stroke-width="2"/>
<path d="M60 36 h36 M60 44 h36 M60 52 h30 M30 68 h64 M30 76 h64 M30 84 h50" stroke="#5c5142" stroke-width="3"/>
<path d="M60 36 h12" stroke="#e8b64c" stroke-width="3"/>
</svg>