<svg xmlns="http://www.w3.org/2000/svg" width="128" height="128" viewBox="0 0 128 128"><defs>
<linearGradient id="gold" x1="0" y1="0" x2="0" y2="1">
 <stop offset="0" stop-color="#fff3d6"/><stop offset="0.45" stop-color="#e8b64c"/><stop offset="1" stop-color="#a97b23"/>
</linearGradient>
<linearGradient id="goldv" x1="0" y1="0" x2="1" y2="0">
 <stop offset="0" stop-color="#a97b23"/><stop offset="0.5" stop-color="#ffe9b0"/><stop offset="1" stop-color="#a97b23"/>
</linearGradient>
<radialGradient id="haloG" cx="0.5" cy="0.5" r="0.5">
 <stop offset="0" stop-color="#fff3d6" stop-opacity="0.95"/><stop offset="0.6" stop-color="#ffe9b0" stop-opacity="0.35"/><stop offset="1" stop-color="#ffe9b0" stop-opacity="0"/>
</radialGradient>
</defs>
<path d="M64 10 q10 14 0 24 q-10 -10 0 -24 Z" fill="#ffb46b"/>
<path d="M64 16 q5 8 0 14 q-5 -6 0 -14 Z" fill="#fff3d6"/>
<rect x="52" y="38" width="24" height="58" rx="4" fill="#e2d8c0"/>
<path d="M56 42 q-4 20 2 30" stroke="#fff" stroke-width="3" fill="none" opacity="0.6"/>
<path d="M52 46 q-6 12 -2 18 l4 0 Z" fill="#e2d8c0"/>
<ellipse cx="64" cy="102" rx="26" ry="8" fill="url(#gold)"/>
<path d="M42 102 Q40 92 50 90" stroke="url(#gold)" stroke-width="5" fill="none"/>
</svg>