<svg xmlns="http://www.w3.org/2000/svg" width="128" height="128" viewBox="0 0 128 128"><defs>
<linearGradient id="gold" x1="0" y1="0" x2="0" y2="1">
 <stop offset="0" stop-color="#fff3d6"/><stop offset="0.45" stop-color="#e8b64c"/><stop offset="1" stop-color="#a97b23"/>
</linearGradient>
<linearGradient id="goldv" x1="0" y1="0" x2="1" y2="0">
 <stop offset="0" stop-color="#a97b23"/><stop offset="0.5" stop-color="#ffe9b0"/><stop offset="1" stop-color="#a97b23"/>
</linearGradient>
<radialGradient id="haloG" cx="0.5" cy="0.5" r="0.5">
 <stop offset="0" stop-color="#fff3d6" stop-opacity="0.95"/><stop offset="0.6" stop-color="#ffe9b0" stop-opacity="0.35"/><stop offset="1" stop-color="#ffe9b0" stop-opacity="0"/>
</radialGradient>
</defs>
<path d="M40 10 Q64 24 88 10 L96 24 Q64 42 32 24 Z" fill="#5b3a7e"/>
<path d="M36 22 L28 104 L52 106 L54 34 Q44 30 36 22 Z" fill="#7a55a0"/>
<path d="M92 22 L100 104 L76 106 L74 34 Q84 30 92 22 Z" fill="#7a55a0"/>
<rect x="28" y="92" width="24" height="12" fill="url(#gold)"/><rect x="76" y="92" width="24" height="12" fill="url(#gold)"/>
<path d="M36 56 h16 M76 56 h16" stroke="#e8b64c" stroke-width="4"/>
</svg>