<svg xmlns="http://www.w3.org/2000/svg" width="128" height="128" viewBox="0 0 128 128"><defs>
<linearGradient id="gold" x1="0" y1="0" x2="0" y2="1">
 <stop offset="0" stop-color="#fff3d6"/><stop offset="0.45" stop-color="#e8b64c"/><stop offset="1" stop-color="#a97b23"/>
</linearGradient>
<linearGradient id="goldv" x1="0" y1="0" x2="1" y2="0">
 <stop offset="0" stop-color="#a97b23"/><stop offset="0.5" stop-color="#ffe9b0"/><stop offset="1" stop-color="#a97b23"/>
</linearGradient>
<radialGradient id="haloG" cx="0.5" cy="0.5" r="0.5">
 <stop offset="0" stop-color="#fff3d6" stop-opacity="0.95"/><stop offset="0.6" stop-color="#ffe9b0" stop-opacity="0.35"/><stop offset="1" stop-color="#ffe9b0" stop-opacity="0"/>
</radialGradient>
</defs>
<path d="M64 116 L64 52" stroke="#6b8a3e" stroke-width="7"/>
<g fill="#8fae5a">
<path d="M64 56 Q40 44 30 18 Q56 26 66 48 Z"/>
<path d="M64 56 Q88 44 98 18 Q72 26 62 48 Z"/>
<path d="M64 44 Q48 26 48 6 Q66 18 66 40 Z"/>
<path d="M64 44 Q80 26 80 6 Q62 18 62 40 Z"/>
<path d="M64 72 Q44 68 34 52 Q56 54 64 64 Z"/>
<path d="M64 72 Q84 68 94 52 Q72 54 64 64 Z"/>
</g>
<path d="M64 56 Q40 44 30 18 M64 56 Q88 44 98 18 M64 44 Q48 26 48 6 M64 44 Q80 26 80 6" stroke="#55702c" stroke-width="2" fill="none"/>
<path d="M50 108 Q64 98 78 108" stroke="url(#goldv)" stroke-width="5" fill="none"/>
</svg>