<svg xmlns="http://www.w3.org/2000/svg" width="128" height="128" viewBox="0 0 128 128"><defs>
<linearGradient id="gold" x1="0" y1="0" x2="0" y2="1">
 <stop offset="0" stop-color="#fff3d6"/><stop offset="0.45" stop-color="#e8b64c"/><stop offset="1" stop-color="#a97b23"/>
</linearGradient>
<linearGradient id="goldv" x1="0" y1="0" x2="1" y2="0">
 <stop offset="0" stop-color="#a97b23"/><stop offset="0.5" stop-color="#ffe9b0"/><stop offset="1" stop-color="#a97b23"/>
</linearGradient>
<radialGradient id="haloG" cx="0.5" cy="0.5" r="0.5">
 <stop offset="0" stop-color="#fff3d6" stop-opacity="0.95"/><stop offset="0.6" stop-color="#ffe9b0" stop-opacity="0.35"/><stop offset="1" stop-color="#ffe9b0" stop-opacity="0"/>
</radialGradient>
</defs>
<path d="M64 8 L64 30" stroke="url(#goldv)" stroke-width="4"/>
<circle cx="64" cy="14" r="5" fill="none" stroke="url(#goldv)" stroke-width="3"/>
<path d="M50 34 L78 34 L74 44 L54 44 Z" fill="url(#gold)"/>
<path d="M40 48 Q64 36 88 48 Q96 72 82 88 Q64 98 46 88 Q32 72 40 48 Z" fill="url(#gold)"/>
<path d="M44 60 h40 M42 72 h44" stroke="#7a5518" stroke-width="4"/>
<circle cx="52" cy="54" r="3" fill="#3d2c10"/><circle cx="64" cy="52" r="3" fill="#3d2c10"/><circle cx="76" cy="54" r="3" fill="#3d2c10"/>
<path d="M58 96 L70 96 L66 110 L62 110 Z" fill="url(#gold)"/><ellipse cx="64" cy="114" rx="12" ry="5" fill="url(#gold)"/>
<path d="M34 40 Q20 28 26 12 M94 40 Q108 28 102 12" stroke="#cfe6ff" stroke-width="3" fill="none" opacity="0.8"/>
</svg>