<svg xmlns="http://www.w3.org/2000/svg" width="128" height="128" viewBox="0 0 128 128"><defs>
<linearGradient id="gold" x1="0" y1="0" x2="0" y2="1">
 <stop offset="0" stop-color="#fff3d6"/><stop offset="0.45" stop-color="#e8b64c"/><stop offset="1" stop-color="#a97b23"/>
</linearGradient>
<linearGradient id="goldv" x1="0" y1="0" x2="1" y2="0">
 <stop offset="0" stop-color="#a97b23"/><stop offset="0.5" stop-color="#ffe9b0"/><stop offset="1" stop-color="#a97b23"/>
</linearGradient>
<radialGradient id="haloG" cx="0.5" cy="0.5" r="0.5">
 <stop offset="0" stop-color="#fff3d6" stop-opacity="0.95"/><stop offset="0.6" stop-color="#ffe9b0" stop-opacity="0.35"/><stop offset="1" stop-color="#ffe9b0" stop-opacity="0"/>
</radialGradient>
</defs>
<ellipse cx="64" cy="70" rx="44" ry="26" fill="none" stroke="#5c4a2c" stroke-width="12"/>
<ellipse cx="64" cy="70" rx="44" ry="26" fill="none" stroke="#7a6238" stroke-width="6"/>
<g stroke="#3d2f1a" stroke-width="4" fill="none">
<path d="M28 58 l-8 -10 M46 50 l-4 -12 M68 46 l2 -12 M90 52 l8 -10 M102 66 l12 -4 M96 82 l10 8 M74 92 l4 12 M50 92 l-6 10 M28 80 l-12 6"/>
</g>
<circle cx="40" cy="56" r="3.4" fill="#a82a2a"/><circle cx="76" cy="48" r="3.4" fill="#a82a2a"/><circle cx="100" cy="74" r="3.4" fill="#a82a2a"/>
<ellipse cx="64" cy="70" rx="52" ry="32" fill="none" stroke="#ffe9b0" stroke-width="3" opacity="0.5"/>
</svg>