<svg xmlns="http://www.w3.org/2000/svg" width="128" height="128" viewBox="0 0 128 128"><defs>
<linearGradient id="gold" x1="0" y1="0" x2="0" y2="1">
 <stop offset="0" stop-color="#fff3d6"/><stop offset="0.45" stop-color="#e8b64c"/><stop offset="1" stop-color="#a97b23"/>
</linearGradient>
<linearGradient id="goldv" x1="0" y1="0" x2="1" y2="0">
 <stop offset="0" stop-color="#a97b23"/><stop offset="0.5" stop-color="#ffe9b0"/><stop offset="1" stop-color="#a97b23"/>
</linearGradient>
<radialGradient id="haloG" cx="0.5" cy="0.5" r="0.5">
 <stop offset="0" stop-color="#fff3d6" stop-opacity="0.95"/><stop offset="0.6" stop-color="#ffe9b0" stop-opacity="0.35"/><stop offset="1" stop-color="#ffe9b0" stop-opacity="0"/>
</radialGradient>
</defs>
<path d="M60 12 Q64 6 68 12 L68 20 L60 20 Z" fill="url(#gold)"/>
<path d="M36 78 Q34 34 64 30 Q94 34 92 78 Q98 84 100 92 L28 92 Q30 84 36 78 Z" fill="url(#gold)"/>
<path d="M40 76 Q40 42 64 38" stroke="#fff3d6" stroke-width="4" fill="none" opacity="0.9"/>
<path d="M28 92 L100 92" stroke="#7a5518" stroke-width="4"/>
<circle cx="64" cy="102" r="8" fill="url(#gold)"/>
<path d="M18 60 Q10 72 16 86 M110 60 Q118 72 112 86" stroke="#ffe9b0" stroke-width="4" fill="none" opacity="0.8"/>
</svg>