<svg xmlns="http://www.w3.org/2000/svg" width="128" height="128" viewBox="0 0 128 128"><defs>
<linearGradient id="gold" x1="0" y1="0" x2="0" y2="1">
 <stop offset="0" stop-color="#fff3d6"/><stop offset="0.45" stop-color="#e8b64c"/><stop offset="1" stop-color="#a97b23"/>
</linearGradient>
<linearGradient id="goldv" x1="0" y1="0" x2="1" y2="0">
 <stop offset="0" stop-color="#a97b23"/><stop offset="0.5" stop-color="#ffe9b0"/><stop offset="1" stop-color="#a97b23"/>
</linearGradient>
<radialGradient id="haloG" cx="0.5" cy="0.5" r="0.5">
 <stop offset="0" stop-color="#fff3d6" stop-opacity="0.95"/><stop offset="0.6" stop-color="#ffe9b0" stop-opacity="0.35"/><stop offset="1" stop-color="#ffe9b0" stop-opacity="0"/>
</radialGradient>
</defs>
<path d="M50 34 L78 34 L76 22 L52 22 Z" fill="#8a7f68"/>
<rect x="54" y="10" width="20" height="14" rx="3" fill="#a89a80"/>
<path d="M46 40 Q36 62 40 88 Q44 112 64 112 Q84 112 88 88 Q92 62 82 40 Z" fill="#cfe6ff" opacity="0.45"/>
<path d="M46 62 Q42 76 44 90 Q48 108 64 108 Q80 108 84 90 Q86 76 82 62 Q64 70 46 62 Z" fill="#7ab8e8" opacity="0.85"/>
<path d="M60 70 h8 v8 h8 v8 h-8 v12 h-8 v-12 h-8 v-8 h8 Z" fill="#fff3d6"/>
<path d="M50 44 Q54 56 50 66" stroke="#ffffff" stroke-width="3" fill="none" opacity="0.7"/>
</svg>