<svg xmlns="http://www.w3.org/2000/svg" width="128" height="128" viewBox="0 0 128 128"><defs>
<linearGradient id="gold" x1="0" y1="0" x2="0" y2="1">
 <stop offset="0" stop-color="#fff3d6"/><stop offset="0.45" stop-color="#e8b64c"/><stop offset="1" stop-color="#a97b23"/>
</linearGradient>
<linearGradient id="goldv" x1="0" y1="0" x2="1" y2="0">
 <stop offset="0" stop-color="#a97b23"/><stop offset="0.5" stop-color="#ffe9b0"/><stop offset="1" stop-color="#a97b23"/>
</linearGradient>
<radialGradient id="haloG" cx="0.5" cy="0.5" r="0.5">
 <stop offset="0" stop-color="#fff3d6" stop-opacity="0.95"/><stop offset="0.6" stop-color="#ffe9b0" stop-opacity="0.35"/><stop offset="1" stop-color="#ffe9b0" stop-opacity="0"/>
</radialGradient>
</defs>
<path d="M34 16 Q64 4 94 16 L86 26 Q64 18 42 26 Z" fill="#cfe6ff"/>
<path d="M46 26 L82 26 L74 108 L54 108 Z" fill="url(#goldv)" opacity="0.9"/>
<path d="M52 30 L58 104 M76 30 L70 104" stroke="#fff3d6" stroke-width="3" opacity="0.8"/>
<ellipse cx="64" cy="112" rx="28" ry="8" fill="#ffe9b0" opacity="0.8"/>
<path d="M30 60 l-8 4 M98 60 l8 4 M34 84 l-10 2 M94 84 l10 2" stroke="#cfe6ff" stroke-width="3"/>
</svg>