<svg xmlns="http://www.w3.org/2000/svg" width="128" height="128" viewBox="0 0 128 128"><defs>
<linearGradient id="gold" x1="0" y1="0" x2="0" y2="1">
 <stop offset="0" stop-color="#fff3d6"/><stop offset="0.45" stop-color="#e8b64c"/><stop offset="1" stop-color="#a97b23"/>
</linearGradient>
<linearGradient id="goldv" x1="0" y1="0" x2="1" y2="0">
 <stop offset="0" stop-color="#a97b23"/><stop offset="0.5" stop-color="#ffe9b0"/><stop offset="1" stop-color="#a97b23"/>
</linearGradient>
<radialGradient id="haloG" cx="0.5" cy="0.5" r="0.5">
 <stop offset="0" stop-color="#fff3d6" stop-opacity="0.95"/><stop offset="0.6" stop-color="#ffe9b0" stop-opacity="0.35"/><stop offset="1" stop-color="#ffe9b0" stop-opacity="0"/>
</radialGradient>
</defs>
<path d="M14 40 Q40 26 62 40 L62 104 Q40 92 14 102 Z" fill="#e2d8c0"/>
<path d="M114 40 Q88 26 66 40 L66 104 Q88 92 114 102 Z" fill="#e2d8c0"/>
<path d="M14 40 Q40 26 62 40 M114 40 Q88 26 66 40" stroke="#8a5b2c" stroke-width="5" fill="none"/>
<path d="M24 52 q18 -6 32 2 M24 64 q18 -6 32 2 M24 76 q18 -6 32 2 M104 52 q-18 -6 -32 2 M104 64 q-18 -6 -32 2 M104 76 q-18 -6 -32 2" stroke="#e8b64c" stroke-width="3.4" fill="none"/>
<path d="M60 20 Q64 10 68 20 L68 40 L60 40 Z" fill="url(#gold)"/>
</svg>